<?xml version="1.0" standalone="no"?>
<!DOCTYPE svg PUBLIC "-//W3C//DTD SVG 20010904//EN"
 "http://www.w3.org/TR/2001/REC-SVG-20010904/DTD/svg10.dtd">
<svg version="1.0" xmlns="http://www.w3.org/2000/svg"
 width="1985.000000pt" height="438.000000pt" viewBox="0 0 1985.000000 438.000000"
 preserveAspectRatio="xMidYMid meet">

<g transform="translate(0.000000,438.000000) scale(0.100000,-0.100000)"
fill="currentColor" stroke="none">
<path d="M9465 4368 c-409 -46 -820 -218 -1143 -480 -338 -273 -604 -676 -722
-1094 -216 -767 -7 -1582 549 -2143 414 -417 972 -651 1556 -651 1026 0 1918
714 2139 1713 40 181 50 270 50 477 0 207 -10 296 -50 477 -103 462 -364 894
-723 1195 -344 288 -750 460 -1193 508 -114 12 -350 11 -463 -2z m528 -164
c573 -83 1089 -408 1409 -889 33 -49 90 -152 128 -227 358 -722 253 -1586
-269 -2210 -316 -377 -775 -631 -1268 -702 -146 -21 -430 -21 -572 0 -623 91
-1170 461 -1480 1003 -117 204 -199 435 -242 676 -33 186 -33 484 0 670 155
880 834 1545 1716 1679 129 20 440 20 578 0z"/>
<path d="M9330 4101 c-123 -26 -231 -57 -318 -91 -75 -29 -78 -32 -124 -102
-89 -138 -169 -329 -203 -486 l-7 -33 89 65 c48 36 133 89 189 118 98 51 101
53 136 118 67 122 186 266 312 378 70 60 66 62 -74 33z"/>
<path d="M9932 4055 c-60 -30 -145 -80 -188 -111 -79 -57 -214 -172 -214 -183
0 -3 57 -4 127 -2 71 2 178 -2 238 -8 l110 -12 99 50 c110 57 279 115 386 133
38 7 70 15 70 19 0 8 -120 59 -210 91 -49 17 -284 78 -301 78 -4 0 -57 -25
-117 -55z"/>
<path d="M8435 3672 c-85 -73 -244 -236 -273 -280 -39 -60 -11 -403 46 -572
l19 -54 50 102 c28 56 77 141 108 188 52 78 57 89 52 127 -14 101 25 361 74
505 10 28 15 52 11 52 -4 0 -43 -31 -87 -68z"/>
<path d="M10680 3729 c-84 -9 -250 -46 -323 -71 l-39 -14 96 -47 c53 -26 137
-75 187 -108 84 -57 93 -61 132 -55 91 14 373 -25 497 -68 24 -8 46 -13 48
-11 14 14 -217 256 -329 344 -48 39 -54 41 -117 40 -37 -1 -105 -6 -152 -10z"/>
<path d="M9570 3693 c-90 -9 -234 -38 -320 -65 -382 -120 -713 -405 -897 -771
-161 -323 -198 -728 -97 -1082 14 -49 29 -94 33 -98 4 -4 33 22 63 59 l55 67
-18 75 c-62 259 -44 538 52 792 168 447 578 781 1049 856 125 20 386 15 495
-10 206 -47 396 -135 554 -259 l65 -50 48 53 c26 30 48 57 48 61 0 10 -99 86
-185 141 -272 176 -628 263 -945 231z"/>
<path d="M8964 2358 l-797 -943 239 -3 c131 -1 244 0 250 2 6 2 204 239 439
525 236 286 430 520 431 518 1 -1 -47 -232 -107 -512 -59 -281 -109 -513 -109
-517 0 -5 78 -8 173 -8 l173 0 435 519 c239 285 435 518 436 517 0 0 -50 -233
-113 -516 -63 -283 -114 -521 -114 -527 0 -10 47 -13 203 -13 l202 0 218 943
c120 518 217 945 217 950 0 4 -82 7 -183 7 l-182 0 -414 -480 c-227 -265 -415
-480 -416 -478 -2 2 37 212 86 468 49 256 89 470 89 477 0 10 -42 13 -180 13
l-179 0 -797 -942z"/>
<path d="M11155 3047 c-2 -6 -11 -40 -18 -75 l-15 -63 37 -86 36 -85 115 -76
c82 -54 149 -109 234 -193 l119 -119 -7 73 c-8 91 -36 229 -70 338 l-26 84
-77 51 c-138 90 -320 175 -328 151z"/>
<path d="M7868 2874 c-25 -43 -82 -256 -102 -383 l-15 -93 39 -68 c60 -103
169 -238 260 -323 46 -42 85 -76 86 -74 2 2 -1 41 -6 88 -6 46 -10 134 -9 194
l2 110 -45 70 c-83 128 -135 242 -178 394 -15 52 -29 90 -32 85z"/>
<path d="M11091 2776 c-1 -5 -15 -67 -32 -139 l-30 -130 17 -120 c47 -330 -30
-675 -209 -942 -195 -290 -465 -481 -809 -570 -139 -37 -394 -46 -544 -21
-286 49 -544 185 -749 397 l-96 99 -90 0 c-49 0 -89 -3 -89 -7 0 -19 124 -165
212 -248 214 -204 470 -333 773 -392 124 -23 395 -24 523 0 565 105 1033 524
1187 1065 42 149 57 256 57 422 0 166 -15 273 -57 421 -23 82 -63 184 -64 165z"/>
<path d="M11288 2218 c1 -79 -1 -170 -6 -203 -8 -60 -7 -60 50 -170 66 -127
109 -250 135 -385 l19 -95 33 80 c48 115 76 199 101 308 22 93 22 97 4 142
-23 62 -111 210 -169 285 -53 69 -154 180 -164 180 -3 0 -5 -64 -3 -142z"/>
<path d="M7755 1954 c25 -150 49 -262 75 -346 28 -90 34 -100 73 -127 45 -31
145 -91 152 -91 12 0 175 206 173 218 -2 9 -42 38 -89 66 -121 72 -216 145
-310 238 l-80 81 6 -39z"/>
<path d="M11110 1464 c0 -21 -139 -223 -204 -297 -64 -74 -66 -78 -66 -131 0
-91 -37 -276 -78 -394 -22 -62 -38 -112 -35 -112 10 0 156 103 224 159 41 33
106 91 144 130 l70 72 0 187 c0 140 -5 210 -18 277 -16 80 -36 138 -37 109z"/>
<path d="M8160 1340 c20 -13 225 -80 246 -80 18 0 17 2 -16 52 l-25 38 -110 0
c-76 0 -105 -3 -95 -10z"/>
<path d="M8149 1002 c30 -55 234 -260 335 -337 l37 -28 130 12 c124 11 314 52
389 83 l35 15 -85 43 c-47 23 -121 66 -166 95 l-80 52 -170 6 c-163 5 -314 30
-407 66 -25 10 -27 9 -18 -7z"/>
<path d="M10555 864 c-55 -35 -220 -117 -276 -138 -38 -15 -52 -27 -73 -66
-50 -92 -138 -206 -239 -308 l-102 -103 55 6 c84 10 287 52 363 75 59 19 72
27 102 68 45 62 118 202 150 286 23 60 67 206 62 206 -1 0 -20 -12 -42 -26z"/>
<path d="M9301 614 c-92 -53 -232 -108 -351 -138 -57 -14 -105 -28 -108 -30
-12 -12 216 -98 363 -137 l110 -29 64 31 c102 50 235 145 324 229 l82 79 -95
1 c-52 0 -124 5 -160 9 -176 24 -159 25 -229 -15z"/>
<path d="M51 3693 c-23 -104 -45 -196 -47 -205 -5 -17 19 -18 410 -18 326 0
416 -3 416 -13 0 -6 -110 -468 -245 -1025 -135 -557 -245 -1015 -245 -1018 0
-2 132 -4 293 -4 l293 0 249 1030 249 1030 411 0 412 0 42 184 c23 101 45 193
48 205 l5 21 -1124 0 -1124 0 -43 -187z"/>
<path d="M3600 2659 c-162 -671 -296 -1227 -298 -1235 -3 -12 38 -14 276 -14
l280 0 32 133 c111 461 203 824 228 898 47 137 124 244 242 334 208 160 461
169 548 20 38 -65 28 -122 -133 -765 -80 -322 -148 -593 -151 -602 -5 -17 13
-18 275 -18 258 0 280 1 285 18 22 70 290 1175 301 1241 19 104 19 171 1 237
-42 158 -166 274 -340 319 -135 34 -328 28 -488 -16 -84 -23 -252 -101 -345
-159 -35 -22 -63 -36 -63 -30 0 5 45 197 100 425 55 229 100 420 100 426 0 5
-112 9 -277 9 l-278 0 -295 -1221z"/>
<path d="M15126 3813 c-2 -10 -39 -162 -82 -338 -42 -176 -78 -322 -79 -323
-2 -2 -41 6 -86 17 -264 67 -516 -34 -731 -292 -26 -32 -48 -56 -48 -53 0 3
16 73 35 155 19 82 35 154 35 160 0 8 -75 11 -259 11 -239 0 -260 -1 -265 -17
-9 -29 -426 -1757 -426 -1765 0 -4 125 -8 278 -8 l278 0 74 313 c120 507 179
688 266 815 77 111 204 205 341 253 63 22 211 28 270 10 37 -11 26 -25 149
201 38 70 70 126 70 125 2 -2 -404 -1685 -411 -1705 -4 -10 53 -12 277 -10
l282 3 64 265 c35 146 65 265 65 266 1 1 84 65 185 144 101 78 185 140 187
138 2 -2 67 -186 143 -408 l140 -405 281 -3 281 -2 -15 37 c-168 429 -423
1098 -419 1104 2 4 184 148 404 319 220 172 403 316 406 321 3 5 -142 9 -353
9 l-358 0 -359 -300 c-198 -165 -361 -299 -362 -297 -1 1 66 286 150 632 84
347 151 633 149 638 -2 4 -127 7 -278 7 -252 0 -274 -1 -279 -17z"/>
<path d="M19360 3604 c-162 -86 -304 -162 -316 -169 -16 -10 -28 -45 -53 -149
l-33 -136 -137 0 -137 0 -38 -162 c-20 -90 -40 -171 -42 -180 -5 -17 6 -18
130 -18 98 0 136 -3 136 -12 0 -6 -45 -194 -100 -417 -136 -558 -142 -586
-143 -671 -1 -99 22 -165 80 -230 84 -93 209 -137 416 -147 126 -6 334 11 352
28 5 5 28 86 51 181 l42 171 -102 -5 c-142 -8 -204 3 -238 42 -33 36 -35 68
-12 167 28 120 205 857 210 876 5 15 22 17 175 17 93 0 169 2 169 5 0 2 18 81
40 175 22 94 40 173 40 175 0 3 -74 5 -165 5 -130 0 -165 3 -165 13 0 13 126
558 135 585 2 6 3 12 2 12 -1 0 -135 -70 -297 -156z"/>
<path d="M2385 3240 c-368 -41 -642 -208 -827 -500 -102 -163 -148 -329 -148
-537 0 -244 60 -402 214 -561 175 -182 412 -272 716 -272 325 0 582 99 780
299 72 73 168 206 157 217 -3 3 -114 21 -247 41 l-242 35 -16 -24 c-33 -47
-105 -118 -151 -147 -133 -86 -318 -100 -459 -36 -65 30 -150 114 -180 178
-24 52 -49 185 -39 211 6 15 68 16 706 16 l699 0 12 53 c21 98 30 256 20 355
-21 203 -78 331 -199 452 -112 111 -225 170 -395 206 -88 19 -294 26 -401 14z
m233 -354 c147 -40 231 -142 252 -311 5 -42 7 -88 4 -101 l-6 -24 -433 0 -433
0 14 53 c49 188 187 336 355 381 70 19 180 20 247 2z"/>
<path d="M6965 3236 c-185 -30 -351 -103 -522 -228 -29 -21 -53 -37 -53 -34 0
2 11 52 25 110 14 58 25 108 25 111 0 3 -120 4 -267 3 l-267 -3 -213 -875
c-116 -481 -212 -883 -212 -893 -1 -16 17 -17 276 -15 l278 3 96 400 c107 448
124 514 169 636 73 202 230 356 432 423 179 60 336 9 367 -121 15 -62 9 -92
-163 -780 -75 -299 -136 -547 -136 -553 0 -7 92 -9 278 -8 l277 3 43 165 c45
175 45 175 22 350 -14 101 -14 413 0 525 22 182 73 391 133 548 l26 67 -41 39
c-52 50 -135 95 -218 116 -86 22 -256 28 -355 11z"/>
<path d="M12230 3175 c-142 -21 -303 -72 -377 -120 l-21 -14 33 -98 c19 -54
45 -141 59 -193 l24 -95 66 -3 65 -3 20 39 c24 48 80 98 140 126 40 18 65 21
186 21 127 0 145 -2 188 -24 70 -34 102 -81 102 -150 0 -68 -22 -149 -44 -160
-28 -15 -199 -40 -386 -56 -99 -9 -207 -19 -239 -23 l-59 -7 2 -165 c1 -90 4
-166 6 -168 2 -2 25 3 52 12 72 24 176 43 345 66 84 11 167 23 185 26 l32 6
-24 -88 c-47 -175 -77 -235 -148 -301 -86 -79 -206 -124 -336 -125 -43 0 -96
5 -116 12 -20 7 -38 10 -40 8 -1 -1 -15 -48 -30 -103 -15 -55 -40 -135 -56
-179 -16 -44 -29 -86 -29 -94 0 -21 180 -10 285 17 103 27 244 97 323 161 34
27 64 50 66 50 2 0 6 -26 9 -57 4 -32 11 -75 17 -95 l11 -38 273 0 274 0 -20
73 c-28 101 -27 242 1 382 12 60 56 243 96 406 104 419 113 504 63 636 -29 79
-146 197 -238 241 -82 39 -190 68 -300 82 -111 13 -353 11 -460 -5z"/>
<path d="M17480 3174 c-122 -19 -297 -78 -392 -133 -318 -182 -518 -530 -518
-899 1 -494 387 -834 945 -832 303 1 570 105 761 295 69 68 165 194 168 221 1
4 -111 24 -247 44 l-248 36 -20 -32 c-29 -48 -131 -138 -183 -164 -70 -34
-143 -50 -227 -50 -229 0 -395 147 -407 362 l-5 78 701 0 701 0 11 38 c20 75
32 219 27 332 -15 301 -143 507 -392 630 -127 64 -212 81 -410 86 -119 2 -198
-1 -265 -12z m316 -349 c149 -44 229 -158 241 -342 l6 -83 -437 0 c-293 0
-436 3 -436 10 0 6 9 39 21 73 56 168 169 285 324 339 64 22 212 24 281 3z"/>
</g>
</svg>
